<svg id="Слой_1" data-name="Слой 1" xmlns="http://www.w3.org/2000/svg" viewBox="0 0 559.03 619.98"><defs><style>.cls-1{fill:#000;fill-rule:evenodd;}</style></defs><title>pop_up</title><path class="cls-1" d="M269.18,600.44c-.1-.06-37.5,11-35.63,53.6,1.69,42.54,39.75,44.82,39.83,44.87s-18.28,15.9-16.9,44.15,20.86,36.83,20.88,36.84-18.85,5.21-17.91,25,20.16,22.49,20.18,22.5-16.23,28.66,2.66,63.72S321.94,925,322,925.08s-11.89,22.24,4.84,39.43,36.1,4.62,36.1,4.63,4.08,25.45,41.49,26.39,33.18-27.45,33.14-27.48,5.66,42.37,71.08,43.43q3.07.05,5.95,0t5.57-.3a92.48,92.48,0,0,0,10.05-1.34,66.64,66.64,0,0,0,16.1-5.12,45.86,45.86,0,0,0,19-16.09,44.91,44.91,0,0,0,7.5-23.83s3,19.71,42.54,14.88,33.52-26.19,33.52-26.2,19.15,18.48,41.22,8,26-28.46,26-28.46,22.91,5,32.37-10.22.44-30.79.43-30.79,23.8-1.4,20.08-38.78-18.81-34.31-18.82-34.31,29.17-27.35,28.79-71.91-26.57-50.32-26.59-50.34,39.65-12.81,40.2-60.28c.6-47.3-39-54.65-39.08-54.74s19.9-2,19.84-28.18-20-28.44-20-28.47,24-12.94,8.66-46.14-40.52-31-40.51-31,1.69-31.29-49.06-35c-50.89-4-50.78,29.26-50.74,29.34s-5-42.63-45.43-46.8q-1.9-.2-3.7-.27T569,395a46.51,46.51,0,0,0-6.48.61,39.28,39.28,0,0,0-10.89,3.45A39.8,39.8,0,0,0,537,411.48,52.59,52.59,0,0,0,528.28,431s-3.95-10-15.7-20-31.24-19.78-62.57-19.5c-62.66.58-66,41-65.92,41-.1-.08-73.15-21.43-95.46,28.53-22.1,50.09,9.36,61.11,9.29,61.05s-29.86-5-39,32.58,10.28,45.8,10.27,45.78Z" transform="translate(-233.49 -391.51)"/></svg>